<svg width="43" height="47" viewBox="0 0 43 47" fill="none" xmlns="http://www.w3.org/2000/svg">
<path d="M1.71484 15.9961C0.967448 15.1393 0.59375 14.1185 0.59375 12.9336C0.59375 9.90755 3.15495 7.08203 8.27734 4.45703C13.418 1.83203 18.9232 0.519531 24.793 0.519531C33.8346 0.519531 38.3555 3.39974 38.3555 9.16016C38.3555 11.9492 37.3802 14.3281 35.4297 16.2969C33.4974 18.2474 30.1159 20.2799 25.2852 22.3945C29.6419 32.3294 33.3971 37.2969 36.5508 37.2969C38.2096 37.2969 39.987 36.1302 41.8828 33.7969C41.974 34.2526 42.0195 34.5716 42.0195 34.7539C42.0195 36.2852 41.1172 37.8802 39.3125 39.5391C37.5078 41.1797 35.7669 42 34.0898 42C29.8242 42 25.276 36.1849 20.4453 24.5547C19.4792 24.8281 18.6042 24.9648 17.8203 24.9648C17.4375 24.9648 17.082 24.8919 16.7539 24.7461C17.4284 21.3008 19.1419 19.5781 21.8945 19.5781C22.4414 19.5781 23.1159 19.6875 23.918 19.9062C29.8971 17.901 32.8867 14.5742 32.8867 9.92578C32.8867 8.21224 32.0299 6.80859 30.3164 5.71484C28.6211 4.60286 26.4518 4.04688 23.8086 4.04688C19.3242 4.04688 15.013 5.16797 10.875 7.41016C6.73698 9.63411 3.68359 12.4961 1.71484 15.9961ZM11.5586 44.6523C9.69922 45.582 8.01302 46.0469 6.5 46.0469C5.55208 46.0469 5.07812 45.6641 5.07812 44.8984C5.07812 44.4974 5.28776 43.3581 5.70703 41.4805L10.957 15.0117C11.2669 13.4805 11.4219 12.3776 11.4219 11.7031C11.4219 11.0651 11.2031 10.4818 10.7656 9.95312C13.1901 9.04167 14.8763 8.58594 15.8242 8.58594C16.9727 8.58594 17.5469 9.24219 17.5469 10.5547C17.5469 10.8646 17.2461 12.4596 16.6445 15.3398L11.8047 39.6484C11.4583 41.3438 11.2852 42.5378 11.2852 43.2305C11.2852 43.6133 11.3763 44.0872 11.5586 44.6523Z" fill="black"/>
</svg>
