<svg width="151" height="93" viewBox="0 0 151 93" fill="none" xmlns="http://www.w3.org/2000/svg">
<path id="Vector" d="M1.36077 68.623C1.60448 68.2233 2.13061 67.6248 2.56655 67.2906C3.97983 66.1364 21.8171 57.5748 22.9417 57.5025C25.4963 57.3279 27.1935 60.2946 25.7254 62.3959C25.4331 62.8596 23.9412 63.7724 21.7655 64.8811C19.8317 65.8309 16.8743 67.3436 15.1738 68.2389L12.0875 69.8149L15.7892 70.917C41.0442 78.4343 62.2156 75.2759 75.9594 61.9642C78.2393 59.7642 80.4897 57.1787 80.363 56.9208C80.3396 56.8324 78.984 56.6381 77.3553 56.458C71.5627 55.8229 68.9734 55.2345 63.0861 53.2257C57.0306 51.1595 55.4622 50.4097 52.1393 47.9614C48.4571 45.2295 46.6422 43.0006 44.3784 38.3919C41.2358 32.0346 40.5082 25.9111 42.2046 19.9172C45.5319 8.12171 56.9339 0.100799 69.8663 0.489308C72.0417 0.560894 72.5147 0.668617 76.4075 1.99688C80.2763 3.31694 80.7563 3.56121 82.5059 4.80205C86.7397 7.8831 89.5025 11.1866 91.9638 16.2383C94.4575 21.2742 95.5457 26.3404 95.5026 32.4423C95.4685 37.2596 94.2505 43.7386 92.5332 48.1426C92.1074 49.3118 91.7794 50.273 91.8035 50.2812C92.1159 50.3878 99.8485 49.1899 102.341 48.6455C112.104 46.5306 121.095 42.1941 127.84 36.4206C136.646 28.855 142.043 18.3829 143.691 5.69227C143.937 3.79108 143.978 3.67093 144.755 2.80926C146.624 0.791075 149.764 1.8089 150.098 4.52515C150.513 8.26169 147.47 19.6176 144.458 25.4577C139.248 35.618 131.195 43.494 120.518 48.9185C111.541 53.4478 101.486 56.1067 90.8263 56.762L88.328 56.929L87.1756 58.6551C80.1484 69.1077 68.8617 76.7119 55.8574 79.6791C44.9681 82.1876 33.0713 81.8305 19.5246 78.6033C17.3685 78.0822 14.5717 77.3157 13.2741 76.873C12.0005 76.4384 10.7263 76.0841 10.4855 76.0824C10.1321 76.096 10.756 77.5698 13.2174 82.6215C16.7001 89.7119 16.8174 90.1543 15.5695 91.7674C14.4997 93.173 12.6355 93.3686 11.2059 92.2906C10.1597 91.5043 0.606704 71.9337 0.734802 70.8507C0.905032 69.4869 0.954225 69.3428 1.36077 68.623ZM47.8137 24.9431C47.5227 28.6264 48.5298 32.6723 50.773 36.7911C52.8731 40.7001 55.7541 43.1855 60.9875 45.6955C66.2291 48.1814 75.577 50.1906 82.8499 50.4187L84.4955 50.4704L85.3191 48.6858C86.5187 45.9563 88.3457 39.6582 88.6867 36.8504C89.9357 27.1358 87.6107 18.6966 82.0712 12.9166C79.5606 10.2893 77.8022 9.15277 74.4861 8.02129C71.0978 6.86521 69.2846 6.67575 65.9173 7.10961C59.0461 7.9844 52.8332 12.2763 49.6189 18.3156C48.8457 19.7956 47.972 22.985 47.8137 24.9431Z" fill="#FF9328"/>
</svg>
