<svg width="35" height="26" viewBox="0 0 35 26" fill="none" xmlns="http://www.w3.org/2000/svg">
<path d="M7.49763 25.672C5.44963 25.672 3.81763 24.968 2.60162 23.56C1.44963 22.088 0.873625 20.136 0.873625 17.704C0.873625 14.248 1.83363 11.112 3.75363 8.296C5.67363 5.416 8.68163 2.664 12.7776 0.0399952L14.8896 2.44C12.1376 4.68 9.99363 6.792 8.45763 8.776C6.92163 10.76 6.08963 12.52 5.96163 14.056L6.34563 14.344C6.66563 13.768 7.46563 13.48 8.74563 13.48C10.1536 13.48 11.3376 14.056 12.2976 15.208C13.2576 16.296 13.7376 17.704 13.7376 19.432C13.7376 21.288 13.1616 22.792 12.0096 23.944C10.8576 25.096 9.35363 25.672 7.49763 25.672ZM26.6976 25.672C24.6496 25.672 23.0176 24.968 21.8016 23.56C20.6496 22.088 20.0736 20.136 20.0736 17.704C20.0736 14.248 21.0336 11.112 22.9536 8.296C24.8736 5.416 27.8816 2.664 31.9776 0.0399952L34.0896 2.44C31.3376 4.68 29.1936 6.792 27.6576 8.776C26.1216 10.76 25.2896 12.52 25.1616 14.056L25.5456 14.344C25.8656 13.768 26.6656 13.48 27.9456 13.48C29.3536 13.48 30.5376 14.056 31.4976 15.208C32.4576 16.296 32.9376 17.704 32.9376 19.432C32.9376 21.288 32.3616 22.792 31.2096 23.944C30.0576 25.096 28.5536 25.672 26.6976 25.672Z" fill="#FF9328"/>
</svg>
